<svg width="19" height="19" viewBox="0 0 19 19" fill="none" xmlns="http://www.w3.org/2000/svg">
<path d="M2.98292 5.19704C4.19132 5.19704 5.17092 4.21744 5.17092 3.00904C5.17092 1.80065 4.19132 0.821045 2.98292 0.821045C1.77452 0.821045 0.794922 1.80065 0.794922 3.00904C0.794922 4.21744 1.77452 5.19704 2.98292 5.19704Z" fill="#57BF90"/>
<path d="M7.23691 6.85505V18.994H11.0059V12.991C11.0059 11.407 11.3039 9.87305 13.2679 9.87305C15.2049 9.87305 15.2289 11.684 15.2289 13.091V18.995H18.9999V12.338C18.9999 9.06805 18.2959 6.55505 14.4739 6.55505C12.6389 6.55505 11.4089 7.56205 10.9059 8.51505H10.8549V6.85505H7.23691ZM1.09491 6.85505H4.86991V18.994H1.09491V6.85505Z" fill="#57BF90"/>
</svg>
